<svg width="245" height="48" viewBox="0 0 245 48" fill="none" xmlns="http://www.w3.org/2000/svg">
<path d="M0.875 47.8182L6.90909 11.8182H15.1591L14.4261 16.3011H14.6818C15.1364 15.5057 15.7386 14.7386 16.4886 14C17.25 13.2614 18.1648 12.6591 19.233 12.1932C20.3011 11.7159 21.5227 11.4773 22.8977 11.4773C24.7159 11.4773 26.3352 11.9545 27.7557 12.9091C29.1761 13.8636 30.2102 15.3352 30.858 17.3239C31.5057 19.3125 31.5739 21.8466 31.0625 24.9261C30.5739 27.892 29.6875 30.375 28.4034 32.375C27.1307 34.375 25.6193 35.875 23.8693 36.875C22.1193 37.875 20.2841 38.375 18.3636 38.375C17.0455 38.375 15.9318 38.1591 15.0227 37.7273C14.125 37.2955 13.4148 36.7273 12.892 36.0227C12.3693 35.3182 12.0057 34.5625 11.8011 33.7557H11.5625L9.24432 47.8182H0.875ZM12.892 24.9091C12.6648 26.3182 12.6534 27.5455 12.858 28.5909C13.0625 29.6364 13.4773 30.4489 14.1023 31.0284C14.7386 31.5966 15.5625 31.8807 16.5739 31.8807C17.5966 31.8807 18.5057 31.5966 19.3011 31.0284C20.108 30.4489 20.7841 29.6364 21.3295 28.5909C21.875 27.5455 22.2727 26.3182 22.5227 24.9091C22.7386 23.5 22.7443 22.2784 22.5398 21.2443C22.3466 20.2102 21.9432 19.4091 21.3295 18.8409C20.7159 18.2727 19.892 17.9886 18.858 17.9886C17.8466 17.9886 16.9261 18.267 16.0966 18.8239C15.2784 19.3807 14.5966 20.1761 14.0511 21.2102C13.5057 22.2443 13.1193 23.4773 12.892 24.9091ZM33.2571 38L37.6207 11.8182H45.7173L44.9162 16.5909H45.1889C45.9503 14.8636 46.9446 13.5795 48.1719 12.7386C49.3991 11.8864 50.7287 11.4602 52.1605 11.4602C52.5469 11.4602 52.9332 11.4886 53.3196 11.5455C53.7173 11.5909 54.0923 11.6591 54.4446 11.75L53.2173 19.0114C52.831 18.8636 52.3253 18.7557 51.7003 18.6875C51.0753 18.608 50.5071 18.5682 49.9957 18.5682C49.0071 18.5682 48.0866 18.7898 47.2344 19.233C46.3935 19.6648 45.6776 20.2727 45.0866 21.0568C44.5071 21.8295 44.1264 22.7386 43.9446 23.7841L41.5923 38H33.2571ZM64.3054 38.4943C61.544 38.4943 59.2656 37.9261 57.4702 36.7898C55.6861 35.6534 54.4304 34.0682 53.7031 32.0341C52.9759 30 52.8338 27.6364 53.277 24.9432C53.7202 22.2614 54.6349 19.9091 56.0213 17.8864C57.4077 15.8636 59.1804 14.2898 61.3395 13.1648C63.4986 12.0398 65.9474 11.4773 68.6861 11.4773C71.4361 11.4773 73.7031 12.0455 75.4872 13.1818C77.2827 14.3182 78.544 15.9034 79.2713 17.9375C80.0099 19.9716 80.1577 22.3409 79.7145 25.0455C79.2713 27.7273 78.3509 30.0795 76.9531 32.1023C75.5554 34.1136 73.7827 35.6818 71.6349 36.8068C69.4872 37.9318 67.044 38.4943 64.3054 38.4943ZM65.2429 32.2045C66.2656 32.2045 67.1804 31.8977 67.9872 31.2841C68.8054 30.6705 69.4929 29.8125 70.0497 28.7102C70.6065 27.608 71.0043 26.3295 71.2429 24.875C71.4815 23.4432 71.5043 22.1875 71.3111 21.108C71.1293 20.017 70.7429 19.1705 70.152 18.5682C69.5611 17.9545 68.7599 17.6477 67.7486 17.6477C66.7259 17.6477 65.8054 17.9602 64.9872 18.5852C64.169 19.1989 63.4815 20.0568 62.9247 21.1591C62.3793 22.25 61.9872 23.5284 61.7486 24.9943C61.5099 26.4261 61.4815 27.6818 61.6634 28.7614C61.8452 29.8409 62.2372 30.6875 62.8395 31.3011C63.4418 31.9034 64.2429 32.2045 65.2429 32.2045ZM86.1832 11.8182H94.5185L89.9673 39.0909C89.6037 41.2386 88.8707 42.9489 87.7685 44.2216C86.6776 45.5057 85.2798 46.4261 83.5753 46.983C81.8707 47.5398 79.9276 47.8182 77.7457 47.8182C77.4957 47.8182 77.2401 47.8125 76.9787 47.8011C76.7173 47.7898 76.4389 47.7784 76.1435 47.767L77.1832 41.4432C77.3651 41.4659 77.5412 41.483 77.7116 41.4943C77.8821 41.5057 78.0469 41.5114 78.206 41.5114C79.3537 41.5114 80.1832 41.2955 80.6946 40.8636C81.206 40.4432 81.5355 39.7955 81.6832 38.9205L86.1832 11.8182ZM90.9048 8.76705C89.723 8.76705 88.7628 8.375 88.0241 7.59091C87.2855 6.80682 86.9957 5.86932 87.1548 4.77841C87.3253 3.67614 87.8821 2.73864 88.8253 1.96591C89.7798 1.19318 90.8423 0.806816 92.0128 0.806816C93.1946 0.806816 94.1435 1.19318 94.8594 1.96591C95.5866 2.73864 95.8764 3.67614 95.7287 4.77841C95.581 5.86932 95.0355 6.80682 94.0923 7.59091C93.1491 8.375 92.0866 8.76705 90.9048 8.76705ZM107.631 38.4943C104.892 38.4943 102.619 37.9545 100.812 36.875C99.017 35.7841 97.7557 34.233 97.0284 32.2216C96.3011 30.1989 96.1705 27.7955 96.6364 25.0114C97.0909 22.3068 98.017 19.9432 99.4148 17.9205C100.824 15.8864 102.597 14.3068 104.733 13.1818C106.869 12.0455 109.25 11.4773 111.875 11.4773C113.739 11.4773 115.392 11.767 116.835 12.3466C118.278 12.9261 119.472 13.7898 120.415 14.9375C121.358 16.0739 122 17.4716 122.341 19.1307C122.682 20.7898 122.67 22.6932 122.307 24.8409L121.983 26.9205H99.2443L100.011 22.0795H115.011C115.148 21.1932 115.074 20.4034 114.79 19.7102C114.506 19.017 114.045 18.4773 113.409 18.0909C112.784 17.6932 112.017 17.4943 111.108 17.4943C110.188 17.4943 109.324 17.7102 108.517 18.142C107.722 18.5625 107.045 19.1307 106.489 19.8466C105.932 20.5625 105.568 21.3693 105.398 22.267L104.494 27.2273C104.313 28.3295 104.364 29.2727 104.648 30.0568C104.932 30.8409 105.42 31.4432 106.114 31.8636C106.807 32.2727 107.699 32.4773 108.79 32.4773C109.517 32.4773 110.199 32.3807 110.835 32.1875C111.472 31.983 112.04 31.6818 112.54 31.2841C113.051 30.875 113.466 30.3807 113.784 29.8011L121.386 30.0227C120.773 31.7386 119.824 33.233 118.54 34.5057C117.256 35.767 115.688 36.75 113.835 37.4545C111.994 38.1477 109.926 38.4943 107.631 38.4943ZM143.524 11.8182L142.484 17.9545H125.967L127.007 11.8182H143.524ZM131.49 5.54545H139.825L135.803 29.767C135.723 30.2784 135.734 30.6932 135.837 31.0114C135.95 31.3182 136.155 31.5398 136.45 31.6761C136.757 31.8011 137.132 31.8636 137.575 31.8636C137.882 31.8636 138.223 31.8295 138.598 31.7614C138.973 31.6932 139.257 31.642 139.45 31.608L139.723 37.625C139.28 37.75 138.683 37.892 137.933 38.0511C137.195 38.2216 136.331 38.3295 135.342 38.375C133.342 38.4545 131.689 38.2216 130.382 37.6761C129.087 37.1193 128.172 36.2557 127.638 35.0852C127.115 33.9148 127.013 32.4489 127.331 30.6875L131.49 5.54545ZM155.337 38.4943C152.575 38.4943 150.297 37.9261 148.501 36.7898C146.717 35.6534 145.462 34.0682 144.734 32.0341C144.007 30 143.865 27.6364 144.308 24.9432C144.751 22.2614 145.666 19.9091 147.053 17.8864C148.439 15.8636 150.212 14.2898 152.371 13.1648C154.53 12.0398 156.979 11.4773 159.717 11.4773C162.467 11.4773 164.734 12.0455 166.518 13.1818C168.314 14.3182 169.575 15.9034 170.303 17.9375C171.041 19.9716 171.189 22.3409 170.746 25.0455C170.303 27.7273 169.382 30.0795 167.984 32.1023C166.587 34.1136 164.814 35.6818 162.666 36.8068C160.518 37.9318 158.075 38.4943 155.337 38.4943ZM156.274 32.2045C157.297 32.2045 158.212 31.8977 159.018 31.2841C159.837 30.6705 160.524 29.8125 161.081 28.7102C161.638 27.608 162.036 26.3295 162.274 24.875C162.513 23.4432 162.536 22.1875 162.342 21.108C162.161 20.017 161.774 19.1705 161.183 18.5682C160.592 17.9545 159.791 17.6477 158.78 17.6477C157.757 17.6477 156.837 17.9602 156.018 18.5852C155.2 19.1989 154.513 20.0568 153.956 21.1591C153.411 22.25 153.018 23.5284 152.78 24.9943C152.541 26.4261 152.513 27.6818 152.695 28.7614C152.876 29.8409 153.268 30.6875 153.871 31.3011C154.473 31.9034 155.274 32.2045 156.274 32.2045Z" fill="black"/>
<path d="M175.033 38V11.8182H183.368V38H175.033ZM179.209 8.76705C178.038 8.76705 177.033 8.38068 176.192 7.60795C175.351 6.82386 174.93 5.88068 174.93 4.77841C174.93 3.6875 175.351 2.75568 176.192 1.98295C177.033 1.19886 178.038 0.806816 179.209 0.806816C180.391 0.806816 181.396 1.19886 182.226 1.98295C183.067 2.75568 183.487 3.6875 183.487 4.77841C183.487 5.88068 183.067 6.82386 182.226 7.60795C181.396 8.38068 180.391 8.76705 179.209 8.76705ZM196.02 38.375C194.088 38.375 192.412 37.875 190.991 36.875C189.571 35.875 188.554 34.375 187.94 32.375C187.338 30.375 187.281 27.892 187.77 24.9261C188.281 21.8466 189.19 19.3125 190.497 17.3239C191.804 15.3352 193.327 13.8636 195.065 12.9091C196.815 11.9545 198.599 11.4773 200.418 11.4773C201.793 11.4773 202.929 11.7159 203.827 12.1932C204.736 12.6591 205.446 13.2614 205.957 14C206.469 14.7386 206.821 15.5057 207.014 16.3011H207.202L209.401 3.09091H217.736L211.94 38H203.69L204.389 33.7557H204.134C203.645 34.5625 203.02 35.3182 202.259 36.0227C201.497 36.7273 200.594 37.2955 199.548 37.7273C198.514 38.1591 197.338 38.375 196.02 38.375ZM199.957 31.8807C200.969 31.8807 201.884 31.5966 202.702 31.0284C203.52 30.4489 204.207 29.6364 204.764 28.5909C205.332 27.5455 205.73 26.3182 205.957 24.9091C206.196 23.4773 206.207 22.2443 205.991 21.2102C205.776 20.1761 205.349 19.3807 204.713 18.8239C204.088 18.267 203.264 17.9886 202.241 17.9886C201.219 17.9886 200.304 18.2727 199.497 18.8409C198.69 19.4091 198.02 20.2102 197.486 21.2443C196.952 22.2784 196.565 23.5 196.327 24.9091C196.099 26.3182 196.077 27.5455 196.259 28.5909C196.452 29.6364 196.855 30.4489 197.469 31.0284C198.094 31.5966 198.923 31.8807 199.957 31.8807ZM229.412 38.4943C226.673 38.4943 224.401 37.9545 222.594 36.875C220.798 35.7841 219.537 34.233 218.81 32.2216C218.082 30.1989 217.952 27.7955 218.418 25.0114C218.872 22.3068 219.798 19.9432 221.196 17.9205C222.605 15.8864 224.378 14.3068 226.514 13.1818C228.651 12.0455 231.031 11.4773 233.656 11.4773C235.52 11.4773 237.173 11.767 238.616 12.3466C240.06 12.9261 241.253 13.7898 242.196 14.9375C243.139 16.0739 243.781 17.4716 244.122 19.1307C244.463 20.7898 244.452 22.6932 244.088 24.8409L243.764 26.9205H221.026L221.793 22.0795H236.793C236.929 21.1932 236.855 20.4034 236.571 19.7102C236.287 19.017 235.827 18.4773 235.19 18.0909C234.565 17.6932 233.798 17.4943 232.889 17.4943C231.969 17.4943 231.105 17.7102 230.298 18.142C229.503 18.5625 228.827 19.1307 228.27 19.8466C227.713 20.5625 227.349 21.3693 227.179 22.267L226.276 27.2273C226.094 28.3295 226.145 29.2727 226.429 30.0568C226.713 30.8409 227.202 31.4432 227.895 31.8636C228.588 32.2727 229.48 32.4773 230.571 32.4773C231.298 32.4773 231.98 32.3807 232.616 32.1875C233.253 31.983 233.821 31.6818 234.321 31.2841C234.832 30.875 235.247 30.3807 235.565 29.8011L243.168 30.0227C242.554 31.7386 241.605 33.233 240.321 34.5057C239.037 35.767 237.469 36.75 235.616 37.4545C233.776 38.1477 231.707 38.4943 229.412 38.4943Z" fill="#166534"/>
</svg>
